inDegrees=yes
name=ik_Shooting_orientations_zug
DataType=double
version=3
OpenSimVersion=4.3-2021-08-27-4bc7ad9
endheader
time	pelvis_tilt	pelvis_list	pelvis_rotation	pelvis_tx	pelvis_ty	pelvis_tz	hip_flexion_r	hip_adduction_r	hip_rotation_r	knee_angle_r	knee_angle_r_beta	ankle_angle_r	subtalar_angle_r	mtp_angle_r	hip_flexion_l	hip_adduction_l	hip_rotation_l	knee_angle_l	knee_angle_l_beta	ankle_angle_l	subtalar_angle_l	mtp_angle_l	lumbar_extension	lumbar_bending	lumbar_rotation	arm_flex_r	arm_add_r	arm_rot_r	elbow_flex_r	pro_sup_r	wrist_flex_r	wrist_dev_r	arm_flex_l	arm_add_l	arm_rot_l	elbow_flex_l	pro_sup_l	wrist_flex_l	wrist_dev_l
12.5	-3.57858451437088	0.2262957829561615	145.9246547680811	0	0.9399999999999999	0	45.00131625678699	-9.999990907395549	0	59.96472065630979	1.046581810491261	-4.999998103820585	0	0	45.00131625678699	-9.999990907395549	0	59.96472065630979	1.046581810491261	-4.999998103820585	0	0	-2.642406266521962	-0.5874708717158125	-0.6436582991825422	-49.86148598555267	16.7889687905701	-84.48842013418937	94.48611667876187	45.00003007085291	0	0	0	-14.82787212991184	0	75.0018653555056	45.00003007085291	0	0
12.51	-3.593430190406747	0.2845861490460652	145.9216381039797	0	0.9399999999999999	0	45.0013158749223	-9.999990916632598	0	59.96472869971108	1.046581950875096	-4.999998106140274	0	0	45.0013158749223	-9.999990916632598	0	59.96472869971108	1.046581950875096	-4.999998106140274	0	0	-2.674140365907753	-0.5378503400198665	-0.6513613329514381	-49.90229775050095	16.61847779072912	-84.7302880307965	94.38774669729973	45.00003004687709	0	0	0	-14.82789764512789	0	75.00186486531305	45.00003004687709	0	0
12.52	-3.61008563725282	0.280880578985891	145.9117659960841	0	0.9399999999999999	0	45.00131570054797	-9.99999092084184	0	59.96473237685026	1.046582015053282	-4.999998107196736	0	0	45.00131570054797	-9.99999092084184	0	59.96473237685026	1.046582015053282	-4.999998107196736	0	0	-2.687914426640282	-0.5705790348957999	-0.661251100675501	-49.98900907735445	16.47929909086401	-85.00719089371175	94.37026617753146	45.00003003594657	0	0	0	-14.82790930682268	0	75.00186464147203	45.00003003594657	0	0
12.53	-3.59941685404648	0.29677576117391	145.9003348570228	0	0.9399999999999999	0	45.00131540599889	-9.99999092795581	0	59.96473858442072	1.046582123395825	-4.999998108982318	0	0	45.00131540599889	-9.99999092795581	0	59.96473858442072	1.046582123395825	-4.999998108982318	0	0	-2.681869464050828	-0.5328176635336928	-0.6584288709325604	-50.01433769067291	16.27810682601619	-85.27081239413174	94.29391450105757	45.00003001747432	0	0	0	-14.82792899790718	0	75.00186426336491	45.00003001747432	0	0
12.54	-3.59910797111878	0.3180073402533112	145.8974168212788	0	0.9399999999999999	0	45.00131506274684	-9.999990936246405	0	59.96474581500004	1.046582249593241	-4.999998111062956	0	0	45.00131506274684	-9.999990936246405	0	59.96474581500004	1.046582249593241	-4.999998111062956	0	0	-2.698402577919054	-0.5123003015624388	-0.6572845727814915	-50.00509365735268	16.10714578711863	-85.51746538550461	94.18287246450312	45.00002999594545	0	0	0	-14.82795193902773	0	75.00186382273871	45.00002999594545	0	0
12.55	-3.612707839191322	0.3518361801978075	145.8902124470575	0	0.9399999999999999	0	45.00131468541969	-9.999990945356998	0	59.96475376155004	1.046582388286703	-4.999998113348865	0	0	45.00131468541969	-9.999990945356998	0	59.96475376155004	1.046582388286703	-4.999998113348865	0	0	-2.732687707617586	-0.4886591099316803	-0.6553839743265371	-50.02952261637009	15.97626791420911	-85.74041864219906	94.11332383395413	45.00002997228393	0	0	0	-14.82797715576692	0	75.00186333837095	45.00002997228393	0	0
12.56	-3.641532381812332	0.3630376524702493	145.890398706944	0	0.9399999999999999	0	45.00131437660804	-9.9999909528104	0	59.96476026370843	1.046582501770775	-4.999998115218512	0	0	45.00131437660804	-9.9999909528104	0	59.96476026370843	1.046582501770775	-4.999998115218512	0	0	-2.772794033034949	-0.4949734438135628	-0.6841300303340592	-50.11316060317624	15.89848234003339	-86.10198478953131	94.18803162245125	45.00002995292336	0	0	0	-14.82799779219554	0	75.00186294195521	45.00002995292336	0	0
12.57	-3.662587486431191	0.3690142701689654	145.8780174278086	0	0.9399999999999999	0	45.00131402788318	-9.999990961202846	0	59.96476762060968	1.046582630172925	-4.999998117322273	0	0	45.00131402788318	-9.999990961202846	0	59.96476762060968	1.046582630172925	-4.999998117322273	0	0	-2.804695366004796	-0.5023503463767245	-0.6733520036452789	-50.09843132964324	15.64430914752925	-86.23773154898856	93.93012663369532	45.00002993111115	0	0	0	-14.82802113021211	0	75.00186249430367	45.00002993111115	0	0
12.58	-3.66847968262917	0.3886923050936039	145.9014490574343	0	0.9399999999999999	0	45.00131372375346	-9.999990968533828	0	59.96477402495589	1.046582741949853	-4.99999811916021	0	0	45.00131372375346	-9.999990968533828	0	59.96477402495589	1.046582741949853	-4.99999811916021	0	0	-2.834572908779287	-0.4849757291163411	-0.7155604488030836	-50.11236575211429	15.54704450761519	-86.61219275898652	93.98643923176616	45.00002991206144	0	0	0	-14.82804145890868	0	75.00186210389811	45.00002991206144	0	0
12.59	-3.673588208688162	0.4109891814886215	145.9014351608318	0	0.9399999999999999	0	45.00131340474244	-9.999990976219761	0	59.96478074250641	1.046582859193227	-4.999998121086686	0	0	45.00131340474244	-9.999990976219761	0	59.96478074250641	1.046582859193227	-4.999998121086686	0	0	-2.843843811879378	-0.4599404350331791	-0.7105383253203544	-50.19596683037485	15.4873754530644	-86.96005244402207	94.02874702657355	45.00002989208631	0	0	0	-14.82806278361088	0	75.0018616943897	45.00002989208631	0	0
12.6	-3.688598572531816	0.4305734061411788	145.8774625205774	0	0.9399999999999999	0	45.00131306343358	-9.999990984433795	0	59.96478793293066	1.046582984689805	-4.999998123144805	0	0	45.00131306343358	-9.999990984433795	0	59.96478793293066	1.046582984689805	-4.999998123144805	0	0	-2.86562994998931	-0.4486950120534119	-0.6907248727569075	-50.21985707364149	15.34548293481109	-87.18228732316692	93.93345173914858	45.00002987073299	0	0	0	-14.82808560831442	0	75.001861256258	45.00002987073299	0	0
12.61	-3.695652352723884	0.4406351411731819	145.8651627837146	0	0.9399999999999999	0	45.00131274025747	-9.999990992208355	0	59.96479474045931	1.046583103503594	-4.99999812509237	0	0	45.00131274025747	-9.999990992208355	0	59.96479474045931	1.046583103503594	-4.99999812509237	0	0	-2.869973419549916	-0.4470979167992623	-0.6972884979038466	-50.29323492845424	15.23263163984774	-87.45202971221455	93.90917852866936	45.00002985051928	0	0	0	-14.82810722018994	0	75.00186084140293	45.00002985051928	0	0
12.62	-3.697012934117659	0.4489504070329095	145.8453022187218	0	0.9399999999999999	0	45.00131242770458	-9.999990999720954	0	59.96480132594086	1.046583218441929	-4.999998126973744	0	0	45.00131242770458	-9.999990999720954	0	59.96480132594086	1.046583218441929	-4.999998126973744	0	0	-2.868319165531277	-0.4405478806301715	-0.6873684122649781	-50.36841148662386	15.0947697314049	-87.71568399649497	93.86815885853215	45.00002983098237	0	0	0	-14.82812812722863	0	75.00186044018464	45.00002983098237	0	0
12.63	-3.702618710719011	0.4581706922121357	145.8399024463455	0	0.9399999999999999	0	45.00131211341485	-9.999991007271081	0	59.96480794806876	1.046583334019865	-4.999998128864041	0	0	45.00131211341485	-9.999991007271081	0	59.96480794806876	1.046583334019865	-4.999998128864041	0	0	-2.86732109159654	-0.4368002387086324	-0.6880111557352274	-50.40835166465853	14.93721771201644	-87.96605734275005	93.7913136197387	45.00002981134453	0	0	0	-14.8281491522528	0	75.00186003673684	45.00002981134453	0	0
12.64	-3.701909008701106	0.4600840604427369	145.8351212810004	0	0.9399999999999999	0	45.00131189335627	-9.999991012537429	0	59.96481259680015	1.046583415155534	-4.99999813018139	0	0	45.00131189335627	-9.999991012537429	0	59.96481259680015	1.046583415155534	-4.99999813018139	0	0	-2.859961095098705	-0.4350764152579013	-0.684914833221684	-50.42885202258481	14.7878426521809	-88.07309116021946	93.65526740139909	45.00002979763656	0	0	0	-14.82816390200534	0	75.00185975425175	45.00002979763656	0	0
12.65	-3.700766730826766	0.4828069652479437	145.8269164673127	0	0.9399999999999999	0	45.00131151547522	-9.999991021605235	0	59.9648205598544	1.046583554137049	-4.99999813245062	0	0	45.00131151547522	-9.999991021605235	0	59.9648205598544	1.046583554137049	-4.99999813245062	0	0	-2.871156390623392	-0.4123235948794597	-0.6919041420115875	-50.43480302905498	14.63789096890036	-88.26429373907496	93.5651519981125	45.0000297740438	0	0	0	-14.82818918713213	0	75.00185926917297	45.0000297740438	0	0
12.66	-3.718220359407334	0.4790354738775385	145.8224258172899	0	0.9399999999999999	0	45.00131138614429	-9.999991024701202	0	59.96482328861073	1.046583601762831	-4.999998133224856	0	0	45.00131138614429	-9.999991024701202	0	59.96482328861073	1.046583601762831	-4.999998133224856	0	0	-2.880292602252308	-0.4576588508795379	-0.7095315735181479	-50.46638587020232	14.5523817967958	-88.47693903545246	93.56115783020057	45.00002976598428	0	0	0	-14.82819784943927	0	75.00185910315329	45.00002976598428	0	0
12.67	-3.711889203255218	0.5035189493312142	145.8026817527154	0	0.9399999999999999	0	45.00131103421147	-9.999991033140905	0	59.96483070342454	1.046583731175746	-4.999998135336155	0	0	45.00131103421147	-9.999991033140905	0	59.96483070342454	1.046583731175746	-4.999998135336155	0	0	-2.884964301149534	-0.4267484651157862	-0.6824355030808159	-50.5049315626681	14.45129458932487	-88.71934045376388	93.50374923531376	45.00002974402069	0	0	0	-14.82822139804088	0	75.00185865138377	45.00002974402069	0	0
12.68	-3.746528109545627	0.5085067265187664	145.8074493706686	0	0.9399999999999999	0	45.00131093853204	-9.999991035426639	0	59.96483272379043	1.046583766437782	-4.999998135907389	0	0	45.00131093853204	-9.999991035426639	0	59.96483272379043	1.046583766437782	-4.999998135907389	0	0	-2.910599576597512	-0.4780282294781906	-0.7134519644864683	-50.5788673921368	14.3849885802762	-88.89554713386948	93.47957776798691	45.00002973806744	0	0	0	-14.82822781095521	0	75.00185852856184	45.00002973806744	0	0
12.69	-3.730607737466336	0.5185228440628082	145.8061988542782	0	0.9399999999999999	0	45.00131068837734	-9.999991041418182	0	59.96483799645132	1.046583858463075	-4.999998137405609	0	0	45.00131068837734	-9.999991041418182	0	59.96483799645132	1.046583858463075	-4.999998137405609	0	0	-2.923921930524271	-0.4781233741898338	-0.7384941740143781	-50.67112199294495	14.37885426029963	-89.19437052454832	93.57753735132886	45.00002972247011	0	0	0	-14.82824455604688	0	75.00185820744295	45.00002972247011	0	0
12.7	-3.735036495356352	0.5286554501998871	145.8102185959181	0	0.9399999999999999	0	45.00131039624281	-9.999991048414667	0	59.96484415210376	1.046583965899478	-4.999998139154891	0	0	45.00131039624281	-9.999991048414667	0	59.96484415210376	1.046583965899478	-4.999998139154891	0	0	-2.939035512829309	-0.5106285090263799	-0.772340971506096	-50.74267072958642	14.29946001030669	-89.39274933295349	93.54527975718814	45.00002970425535	0	0	0	-14.82826410838626	0	75.00185783243535	45.00002970425535	0	0
12.71	-3.724401044216923	0.5345021589563734	145.7989008585709	0	0.9399999999999999	0	45.00131009687382	-9.999991055580724	0	59.9648504601486	1.04658407599563	-4.999998140946142	0	0	45.00131009687382	-9.999991055580724	0	59.9648504601486	1.04658407599563	-4.999998140946142	0	0	-2.932043110515224	-0.561125092221966	-0.799946304986463	-50.83953510008018	14.24903417503926	-89.55652296597306	93.55595722665927	45.00002968559615	0	0	0	-14.82828414636071	0	75.00185744814098	45.00002968559615	0	0
12.72	-3.714206732520645	0.5380837525703762	145.7797550795937	0	0.9399999999999999	0	45.00130981278727	-9.999991062376685	0	59.96485644660462	1.046584180478998	-4.999998142644436	0	0	45.00130981278727	-9.999991062376685	0	59.96485644660462	1.046584180478998	-4.999998142644436	0	0	-2.937683089471569	-0.6055425346068797	-0.8129613742365126	-50.87392098538963	14.1226388643073	-89.62612791421621	93.45699475464902	45.00002966789742	0	0	0	-14.8283031638397	0	75.00185708346439	45.00002966789742	0	0
12.73	-3.723887437432511	0.5506476752375168	145.7698346443208	0	0.9399999999999999	0	45.00130952523588	-9.999991069251966	0	59.96486250621953	1.046584286239229	-4.99999814436216	0	0	45.00130952523588	-9.999991069251966	0	59.96486250621953	1.046584286239229	-4.99999814436216	0	0	-2.950527500468153	-0.7018493104488013	-0.8833412161182803	-50.95923537422903	14.06175831020421	-89.73539394182163	93.45695978091096	45.00002964998932	0	0	0	-14.82832241501052	0	75.00185671434009	45.00002964998932	0	0
